<mxfile host="app.diagrams.net" modified="2024-03-05T06:31:48.281Z" agent="Mozilla/5.0 (Windows NT 10.0; Win64; x64) AppleWebKit/537.36 (KHTML, like Gecko) Chrome/122.0.0.0 Safari/537.36" etag="s3ziGa1EmNqygkQt7XiH" version="23.1.2" type="device">
  <diagram name="Page-1" id="AgT1qPYa_u5w1FnHR-iG">
    <mxGraphModel dx="1562" dy="1953" grid="1" gridSize="10" guides="1" tooltips="1" connect="1" arrows="1" fold="1" page="1" pageScale="1" pageWidth="850" pageHeight="1100" math="0" shadow="0">
      <root>
        <mxCell id="0" />
        <mxCell id="1" parent="0" />
        <mxCell id="bMk-UlgrDt2UOq0v8GuX-1" value="" style="shape=image;verticalLabelPosition=bottom;labelBackgroundColor=default;verticalAlign=top;aspect=fixed;imageAspect=0;image=https://addendanalytics.com/wp-content/uploads/2021/09/What-is-Bot-Framework.png;" vertex="1" parent="1">
          <mxGeometry x="192.5" y="190" width="120" height="120" as="geometry" />
        </mxCell>
        <mxCell id="bMk-UlgrDt2UOq0v8GuX-2" value="" style="shape=image;verticalLabelPosition=bottom;labelBackgroundColor=default;verticalAlign=top;aspect=fixed;imageAspect=0;image=https://miro.medium.com/v2/resize:fit:800/1*v2vdfKqD4MtmTSgNP0o5cg.png;" vertex="1" parent="1">
          <mxGeometry x="490" y="190" width="105" height="105" as="geometry" />
        </mxCell>
        <mxCell id="bMk-UlgrDt2UOq0v8GuX-3" value="" style="shape=image;verticalLabelPosition=bottom;labelBackgroundColor=default;verticalAlign=top;aspect=fixed;imageAspect=0;image=https://upload.wikimedia.org/wikipedia/commons/thumb/9/93/MongoDB_Logo.svg/2560px-MongoDB_Logo.svg.png;" vertex="1" parent="1">
          <mxGeometry x="369.74" y="410" width="345.51" height="93" as="geometry" />
        </mxCell>
        <mxCell id="bMk-UlgrDt2UOq0v8GuX-4" value="" style="shape=flexArrow;endArrow=classic;html=1;rounded=0;exitX=0.5;exitY=1;exitDx=0;exitDy=0;entryX=0.5;entryY=0;entryDx=0;entryDy=0;" edge="1" parent="1" source="bMk-UlgrDt2UOq0v8GuX-2" target="bMk-UlgrDt2UOq0v8GuX-3">
          <mxGeometry width="50" height="50" relative="1" as="geometry">
            <mxPoint x="470" y="400" as="sourcePoint" />
            <mxPoint x="520" y="350" as="targetPoint" />
          </mxGeometry>
        </mxCell>
        <mxCell id="bMk-UlgrDt2UOq0v8GuX-5" value="" style="shape=image;verticalLabelPosition=bottom;labelBackgroundColor=default;verticalAlign=top;aspect=fixed;imageAspect=0;image=data:image/png,iVBORw0KGgoAAAANSUhEUgAAANIAAADwCAMAAABCI8pNAAAAh1BMVEX///8AAACMjIzy8vL5+fnt7e3d3d3Dw8Pg4OD8/Pyvr6/s7OxAQEDOzs5hYWHx8fG4uLjX19fKyspQUFB2dnapqamVlZWwsLCKioqhoaGampp+fn7S0tK/v79JSUkeHh4lJSU2NjZXV1cODg4vLy9sbGwhISFeXl47OzsTExNwcHB7e3sxMTG+aSOYAAAKrklEQVR4nN1d13bqOhCNwYDBEDqhh5aQhPP/33cxkmw1sC3PSPLdb2etE1kblemjtzdUfPSD4Hw5beaDJu6HrOE9yPB7WnTqz2seyOivIteTqoRYYfTAZux6Yubo6ykFwXej7XpuZpg+Y5Tg2Ou6nl9pjF4RemBWq6WKludcRnf0d64nWhSjp4dIwefc9WSLYFWYD8GH6wnnoVdoxwk4eL39xpfShBL0vb0oun9GhBL8+akqDcrvOQ4919PXYFmF0B1T3xYqLH5xP8XENQkB0Wd1RkGwdE2DwxiC0B0n10RSbIEY3WVU6JoLAdQaJfj04pKIABndOXmwTk1QRndOrgm9sF1N8e6aUVUJq8HKLaMBPKMgcKvFgohYGQeXjBYYjIJg7Y5RC4dREAydUZphUdq4YoS2SO6WaYNHqeGGUYjHKAjcUMp3qFbAyAmlEyalvQtGXUxGbi4IOMNPCxcOyzUupT8HlFCPkhtFD5eRi8OEqDoQdKxTgnSiaGFfHUcVtAlm1impSQ3A+LFOqWy0rzz+h5SspxEgS9o7YtuUkNwOHKynG+FTsu77wqe0/f9Rsq4+NNApWTcvVGf44bScT9otdvfG7e288X4wp2TdVhdXqd8YPNGcm+2PjVl0wzol7ixNe3mGQHew2NeH0mFdNBY5WJRbLetniWkPpe6l5qRRfLWs33iMUumMunDSOBaiZD21g1EycvXeaf3kUrIuapkm/mU6QHM8/3t5uKwrRIzStNIo3XZndXvfZ8HE/t9i5ooSs2ov4CMzStY18R77XcFzL1jqpXV7KXWnQKfIpLkh1h15aXoAdAlFB23585D68aAlYqo8Ao+bjzb7MnSi99QZpTTBCzqsysY9A4+bj9QnDuwVTVf/ADtuAaTBZ+DszdSLe4QdtwjYp4ET6NL0EAfRWvZp4GP8jbT6+ehlahmo/MjCVsb6sBmGxyADqHrZycY92bQuYqG8AvTLgntwATnya4g1PaCyViyKtBYJTFWWw/tytr9AFr/J+SGWbCYmkTYIBk1bomQpHbmH+QOGrdYwDMN4t8eQEM9whT9BOpBTZaf6+wIvjXQgm8GK54scJXwNbGSbUh/9O8RROED/ToKHKvSN/pmvByU7PhXiJ0UvNLJ54xH1H9sJT3wbV+SvUJCrCDvFh6golqpkIitb4vfxEVse138WZC0xMqylRhEP/wH1Gyeb+y7VWzFjqVR9tedDJsUWmI42Iigs2uq0wxCegUaVfZsdi2hNDJZopzvbqkOFfhNL0aO+PLuV0NQnitN4ggZFbHe/+UH8IY+PoeEjpjmI8Lb73P7dQEDdRPD2DA1s2k8TZ0oYfJX8l4u7gYAGa6EjZlvMiycP9OcEVpaJs8ZBcClBE0M40aQXV5X3H/B7ZEiGdFb9/LYHP8m0h6i7biPgwoleOS4bzNFoEJj/8ICqOpaZA5TltEa5Q0tiCymcaJzWdR+sGeAPS/wNZ9ftTwEtJxp5dt+ncQRm3BCl0Um9vYQTkHCiRRzWcyU1oIe6alSVyjiLeQEvQK/ein7/PZKtYoYLwNabAwvtiqDCqUrgBGj3wuGv8vVL7xh3LZUUBBW3Xg/eTKmKCZmSaQodtZKq1TpAg249w+AJrSZpwc6pKmjGoZGBvfRv2yWgAaFfA3u04+O2S7A2nRh7O8Kj246B3sO3kn/WPYAoHygIP42uCOqSceEvzgcrWSgVw6UuIftdRYphV54TS3T3ok+wDix9uPB1zJoGevyMDHWTFw1Ms//u49XAUKpcJmSF0F4/dZE1J/rJNbgn7L/6/SIJX4D++jIPZ/VgJD4i9fncRO1yXYz8fjeL7LusIONHbxTGQvuLg9UplgXZdze+KdtGjk/HPbk9QlkVyiao+jB4awqz3m96g3E7isbb3UJ8g4Wupy8+FA2IpH2EMYr0ZdtHNJz069oL/hxnbh8N81o+nxO1if4nP3XWt1TQMOUmfn/OJ7hQ8Uq1d1/VB0KB85e2Ft96QrP0zmA3iZ9qqzbvMFrJa9VvTPijQ/0O/lnpCejkVHu7te0tGgkW84EqV0k6syfufRG05K20C5gZjtabv+SDLlL5zC+mG/l2nCY0emES4GSnzfGTHSIGqbZgdBuz7myfvhhO3fm/9DozS9Di3gZqeBDX3ApagqEPgaviDvY7l88VhZOl+MCKcUaH2GzvOnJzVcQjVeEx3jVKj+jp2vKl3uxsfhU+FTjpe+K/zy0lGsajV30WjQ7Ti6bX19UY1/KIerO8dpgGFUB5r1JhbcJwsn5lLGQoa3ZHxyKj7pc70BhhvFuW6BL5wjGkIizR/vUyG4FIreboVvolrFPRL3dLt+j9vo2qhdaihdmbusFXkbsqNmzQe2mYnq3BpkJn3GCf08u1pfi+SuFW3qsUrqs/vDZdPXOkbkt2cNXhXE4dbIL1bJ4uR+MwlSzdsN1ZzY5Qg1+L+57B2+4f+tM7+vAv7s2KKYPtI/iXEVFEtOO3PodFrrOjOc0fxDMcXl8TchugeuCVrtzJ/3Mv8dwthf6yDRqerVNd1yiB/jwhP7eGi0+doRjn/53P0KU/V9FRfYCa5IP2Tqs1yJr/JP9PfIesRuh9WPWCaBjiPwBjAUKaIvSL9Y7AW7o315OBARfwFR9i7N8a9cHyxLeQzZw4/ElqeJiu/Rof2eSz0vazjmd9kGZfZiXLu3ozekvLULILIvN1+5h8UASpfsoc8tki+RanL4x0Vcg/MzPJn0q8skg5kJOTvVlv/4VYKKRiiOT+ZlaF37nAr5A2uH48gs2ZfvVdpZTEI3WO8zi4eOcbBukDNg+riXuk1W2DjyrIfFuJhXHNKOE3AcZCptIl90GWAFRjuZS5GZZSM3wPcpLMkEXgrpKvy9dE4FxkFH4kh6RvxbpFEXIcuqLX2HW7HFNwCX1BKFYS1FXJG3AcYjHoV1fBxK/LWMpJcj03Q/DrMuH0cLIRawk+Yasj+cI9rm99Bf5V1dGbmJFWU8HEu7/nvIoXeJZ9XhhDkcJJoFRPwcSLpWAhbTxLbzAAYydSEq8HX/pPlYOgLjRkD7/r2RlhI1IS5VI9zQvh8CxlSrUUTEeewUamhPnQAxoCkZKUd15HwdSUKElRWp/rxZ9BTKtZ8j6vBEjFoPHgYzTGctbsJEpSMTlKj/8V9ULtcfqXriVKcsIavHnBm5wXjOZq4g3XUDLWwAWTtA0QnlsTc1cXCiXoTyppi/B9RYRnWYO1sC0SAAsmTbIseImVOPxK+SZwuFaT0AwdEI7E4edKZiFsQEYpW0wAfANJ2Z4fgqMyAaxg0qZbAXsDPsTRd8qbt7DmhbYABvh5BElZ6MiHC5jSWR49AbBPV2yak1CSc1pBL1kdI+gH0qWdMFH3BmhTIG0yJvAqSWsyUK9Z0ICMhbMkp0duJSs3APZ7WbjxZCk0VrOpQd+90lYIwMolWaNrq+XU/0A/qNl5wHe4JJaS600p/AP9IL6OJy9JrGkoBpsJupaHh1b1v6TxY3XhoLV/VbjDQt7aQ9lyR/gof34v8NaSPP2mptoC3O/VXVBp2EdoyiOr3QklRf/HCMhEo/kcprOBDOX+aSoWFLgKhgyl2m+ooeTo/TpDKDKopSuYq1VYXWm8Euso1apE4SrPPtJRqlVARmn9ONZRqlVARpn99j9DmIMurOFUlQAAAABJRU5ErkJggg==;" vertex="1" parent="1">
          <mxGeometry x="200" y="-250" width="122.5" height="140" as="geometry" />
        </mxCell>
        <mxCell id="bMk-UlgrDt2UOq0v8GuX-6" value="" style="shape=image;verticalLabelPosition=bottom;labelBackgroundColor=default;verticalAlign=top;aspect=fixed;imageAspect=0;image=https://cdn-icons-png.freepik.com/512/78/78948.png;" vertex="1" parent="1">
          <mxGeometry x="482.69" y="-240" width="130" height="130" as="geometry" />
        </mxCell>
        <mxCell id="bMk-UlgrDt2UOq0v8GuX-7" value="" style="shape=flexArrow;endArrow=classic;html=1;rounded=0;entryX=0.5;entryY=0;entryDx=0;entryDy=0;" edge="1" parent="1" target="bMk-UlgrDt2UOq0v8GuX-2">
          <mxGeometry width="50" height="50" relative="1" as="geometry">
            <mxPoint x="543" y="120" as="sourcePoint" />
            <mxPoint x="520" y="160" as="targetPoint" />
          </mxGeometry>
        </mxCell>
        <mxCell id="bMk-UlgrDt2UOq0v8GuX-8" value="&lt;font style=&quot;font-size: 18px;&quot;&gt;Admin&lt;/font&gt;" style="text;strokeColor=none;fillColor=none;align=left;verticalAlign=middle;spacingLeft=4;spacingRight=4;overflow=hidden;points=[[0,0.5],[1,0.5]];portConstraint=eastwest;rotatable=0;whiteSpace=wrap;html=1;" vertex="1" parent="1">
          <mxGeometry x="507.69" y="-110" width="80" height="30" as="geometry" />
        </mxCell>
        <mxCell id="bMk-UlgrDt2UOq0v8GuX-9" value="&lt;font style=&quot;font-size: 18px;&quot;&gt;User&lt;/font&gt;" style="text;strokeColor=none;fillColor=none;align=left;verticalAlign=middle;spacingLeft=4;spacingRight=4;overflow=hidden;points=[[0,0.5],[1,0.5]];portConstraint=eastwest;rotatable=0;whiteSpace=wrap;html=1;" vertex="1" parent="1">
          <mxGeometry x="232.24" y="-110" width="80" height="30" as="geometry" />
        </mxCell>
        <mxCell id="bMk-UlgrDt2UOq0v8GuX-10" value="" style="shape=flexArrow;endArrow=classic;html=1;rounded=0;entryX=0.5;entryY=0;entryDx=0;entryDy=0;" edge="1" parent="1" target="bMk-UlgrDt2UOq0v8GuX-1">
          <mxGeometry width="50" height="50" relative="1" as="geometry">
            <mxPoint x="253" y="-70" as="sourcePoint" />
            <mxPoint x="122.5" y="200" as="targetPoint" />
          </mxGeometry>
        </mxCell>
        <mxCell id="bMk-UlgrDt2UOq0v8GuX-11" value="&lt;font style=&quot;font-size: 18px;&quot;&gt;Storage authority data&lt;/font&gt;" style="text;strokeColor=none;fillColor=none;align=left;verticalAlign=middle;spacingLeft=4;spacingRight=4;overflow=hidden;points=[[0,0.5],[1,0.5]];portConstraint=eastwest;rotatable=0;whiteSpace=wrap;html=1;" vertex="1" parent="1">
          <mxGeometry x="550" y="330" width="220" height="30" as="geometry" />
        </mxCell>
        <mxCell id="bMk-UlgrDt2UOq0v8GuX-12" value="" style="shape=flexArrow;endArrow=classic;html=1;rounded=0;entryX=-0.061;entryY=0.509;entryDx=0;entryDy=0;entryPerimeter=0;exitX=0.997;exitY=0.445;exitDx=0;exitDy=0;exitPerimeter=0;" edge="1" parent="1" source="bMk-UlgrDt2UOq0v8GuX-1" target="bMk-UlgrDt2UOq0v8GuX-2">
          <mxGeometry width="50" height="50" relative="1" as="geometry">
            <mxPoint x="280" y="380" as="sourcePoint" />
            <mxPoint x="330" y="330" as="targetPoint" />
          </mxGeometry>
        </mxCell>
        <mxCell id="bMk-UlgrDt2UOq0v8GuX-13" value="&lt;font style=&quot;font-size: 15px;&quot;&gt;Authentication&lt;/font&gt;" style="text;html=1;strokeColor=none;fillColor=none;align=center;verticalAlign=middle;whiteSpace=wrap;rounded=0;" vertex="1" parent="1">
          <mxGeometry x="369.74" y="210" width="60" height="30" as="geometry" />
        </mxCell>
        <mxCell id="bMk-UlgrDt2UOq0v8GuX-14" value="" style="shape=image;verticalLabelPosition=bottom;labelBackgroundColor=default;verticalAlign=top;aspect=fixed;imageAspect=0;image=https://upload.wikimedia.org/wikipedia/commons/thumb/9/95/Vue.js_Logo_2.svg/1200px-Vue.js_Logo_2.svg.png;" vertex="1" parent="1">
          <mxGeometry x="484.81" y="10" width="115.38" height="100" as="geometry" />
        </mxCell>
        <mxCell id="bMk-UlgrDt2UOq0v8GuX-15" value="" style="shape=flexArrow;endArrow=classic;html=1;rounded=0;entryX=0.5;entryY=0;entryDx=0;entryDy=0;" edge="1" parent="1">
          <mxGeometry width="50" height="50" relative="1" as="geometry">
            <mxPoint x="542" y="-70" as="sourcePoint" />
            <mxPoint x="542" as="targetPoint" />
          </mxGeometry>
        </mxCell>
        <mxCell id="bMk-UlgrDt2UOq0v8GuX-16" value="&lt;font style=&quot;font-size: 16px;&quot;&gt;Access Via GUI&lt;/font&gt;" style="text;html=1;strokeColor=none;fillColor=none;align=center;verticalAlign=middle;whiteSpace=wrap;rounded=0;" vertex="1" parent="1">
          <mxGeometry x="520" y="-60" width="190" height="30" as="geometry" />
        </mxCell>
        <mxCell id="bMk-UlgrDt2UOq0v8GuX-18" value="&lt;font style=&quot;font-size: 16px;&quot;&gt;Access Via MS Team&lt;/font&gt;" style="text;html=1;strokeColor=none;fillColor=none;align=center;verticalAlign=middle;whiteSpace=wrap;rounded=0;" vertex="1" parent="1">
          <mxGeometry x="239.74" y="30" width="190" height="30" as="geometry" />
        </mxCell>
      </root>
    </mxGraphModel>
  </diagram>
</mxfile>
